<svg xmlns="http://www.w3.org/2000/svg" width="32" height="32" viewBox="0 0 10 23">
    <path fill="#FFF" fill-rule="nonzero" d="M4 19.696V14H2.041a1 1 0 0 1 0-2H4v-1H2.041a1 1 0 0 1 0-2H4V3.317L1.615 5.72a.94.94 0 0 1-1.338 0 .959.959 0 0 1 0-1.349L4.337.28a.94.94 0 0 1 1.339 0l4.047 4.093c.37.373.37.976 0 1.349a.94.94 0 0 1-1.338 0L6 3.307V9h2.041a1 1 0 1 1 0 2H6v1h2.041a1 1 0 0 1 0 2H6v5.68l2.384-2.4a.942.942 0 0 1 1.339 0c.37.372.37.975 0 1.348L5.658 22.72a.942.942 0 0 1-1.34 0l-4.04-4.093a.958.958 0 0 1 0-1.349.942.942 0 0 1 1.338 0L4 19.696z"/>
</svg>
