<svg id="Layer_1" data-name="Layer 1" xmlns="http://www.w3.org/2000/svg" width="32" height="32" viewBox="0 0 32 32"><title>ico-move</title><g id="Move_-_32" data-name="Move - 32"><path fill="#FAFBFD" d="M30.71,16.71l-4,4a1,1,0,0,1-1.42,0,1,1,0,0,1,0-1.42L27.59,17H17V27.59l2.29-2.3a1,1,0,0,1,1.42,1.42l-4,4a1,1,0,0,1-1.42,0l-4-4a1,1,0,0,1,1.42-1.42L15,27.59V17H4.41l2.3,2.29a1,1,0,0,1,0,1.42,1,1,0,0,1-1.42,0l-4-4a1,1,0,0,1,0-1.42l4-4a1,1,0,0,1,1.42,1.42L4.41,15H15V4.41l-2.29,2.3a1,1,0,0,1-1.42-1.42l4-4a1,1,0,0,1,1.42,0l4,4a1,1,0,0,1,0,1.42,1,1,0,0,1-1.42,0L17,4.41V15H27.59l-2.3-2.29a1,1,0,0,1,1.42-1.42l4,4A1,1,0,0,1,30.71,16.71Z"/></g></svg>