<svg xmlns="http://www.w3.org/2000/svg" width="32" height="32" viewBox="0 0 32 32"><g id="ico-3d-rotate-32-2" data-name="ico-3d-rotate-32"><path fill="#FAFBFD" d="M6.92,19.59a1,1,0,0,1-.92.62,1.09,1.09,0,0,1-.39-.08C2,18.61,0,16.44,0,14c0-2.17,1.61-4.19,4.55-5.68a1,1,0,0,1,1.34.43,1,1,0,0,1-.44,1.35C3.26,11.22,2,12.64,2,14c0,1.56,1.6,3.12,4.39,4.28A1,1,0,0,1,6.92,19.59ZM31.8,12.7a1,1,0,0,0-1.91.59A2.5,2.5,0,0,1,30,14c0,2.84-5.75,6-14,6-.83,0-1.66-.05-2.47-.11l2.18-2.18a1,1,0,0,0-1.42-1.42l-4,4a1,1,0,0,0,0,1.42l4,4a1,1,0,0,0,1.42,0,1,1,0,0,0,0-1.42l-2.42-2.42c.89.08,1.8.13,2.71.13,9,0,16-3.51,16-8A4.46,4.46,0,0,0,31.8,12.7ZM21.93,24.06a1,1,0,0,0-1.27.61C19.49,28,17.75,30,16,30c-1.35,0-2.76-1.26-3.87-3.45a1,1,0,1,0-1.78.9C11.82,30.38,13.83,32,16,32c2.67,0,5.06-2.43,6.54-6.67A1,1,0,0,0,21.93,24.06ZM16,2c2.45,0,4.33,4.13,4.85,10.44l-2.14-2.15a1,1,0,0,0-1.42,1.42l4,4a1,1,0,0,0,1.42,0l4-4a1,1,0,0,0-1.42-1.42L22.88,12.7C22.31,4.73,19.78,0,16,0,11.51,0,8,7,8,16a1,1,0,0,0,2,0C10,7.75,13.16,2,16,2Z"/></g></svg>